<?xml version="1.0" encoding="utf-8"?>
<!-- Generator: Adobe Illustrator 16.0.4, SVG Export Plug-In . SVG Version: 6.00 Build 0)  -->
<!DOCTYPE svg PUBLIC "-//W3C//DTD SVG 1.1//EN" "http://www.w3.org/Graphics/SVG/1.1/DTD/svg11.dtd">
<svg version="1.1" xmlns="http://www.w3.org/2000/svg" xmlns:xlink="http://www.w3.org/1999/xlink" x="0px" y="0px"
	 width="356.982px" height="267.121px" viewBox="0 0 356.982 267.121" enable-background="new 0 0 356.982 267.121"
	 xml:space="preserve">
<g id="Layer_2" display="none">
</g>
<g id="Layer_3">
</g>
<g id="Layer_1">
</g>
<g id="Layer_4">
	<g>
		
			<line fill="none" stroke="#FFFFFF" stroke-width="4.1319" stroke-linecap="round" stroke-linejoin="round" stroke-miterlimit="10" x1="1.682" y1="126.771" x2="354.982" y2="126.771"/>
		<g>
			<circle fill="#697733" stroke="#FFFFFF" stroke-width="2.903" stroke-miterlimit="10" cx="178.333" cy="126.771" r="46.155"/>
			
				<path fill="none" stroke="#FFFFFF" stroke-width="1.1384" stroke-linecap="round" stroke-linejoin="round" stroke-miterlimit="10" d="
				M197.439,144.061c0,0,7.814,7.285,10.814,7.363c2.914,0.076,1.379-2.301,1.379-2.301s-9.203-3.682-13.344-13.805"/>
			
				<path fill="none" stroke="#FFFFFF" stroke-width="1.1384" stroke-linecap="round" stroke-linejoin="round" stroke-miterlimit="10" d="
				M156.191,147.336c6.383-0.592,9.727-7.391,9.727-7.391s-5.852-6.211-12.195,0.664c-6.342,6.877-8.938,8.043-8.48,8.42
				c16.119,13.293,23.91-5.717,23.91-5.717s13.102-7.074,21.385-5.693"/>
			
				<path fill="none" stroke="#FFFFFF" stroke-width="1.1384" stroke-linecap="round" stroke-linejoin="round" stroke-miterlimit="10" d="
				M181.793,101.727c-2.07,7.592-9.432,11.043-9.432,11.043s-5.521-7.822,4.141-14.035c9.664-6.211,9.307-10.525,9.664-9.893
				c12.654,22.318-10.584,26.229-10.584,26.229s5.521,13.807,14.725,15.877"/>
			
				<circle fill="none" stroke="#FFFFFF" stroke-width="1.1384" stroke-linecap="round" stroke-linejoin="round" stroke-miterlimit="10" cx="189.193" cy="122.957" r="7.85"/>
			<circle fill="#697733" stroke="#FFFFFF" stroke-width="1.1384" stroke-miterlimit="10" cx="193.737" cy="137.83" r="9.915"/>
			<circle fill="#697733" stroke="#FFFFFF" stroke-width="1.1384" stroke-miterlimit="10" cx="177.626" cy="132.459" r="10.327"/>
		</g>
	</g>
</g>
<g id="Layer_5">
</g>
</svg>
