<?xml version="1.0" encoding="utf-8"?>
<!-- Generator: Adobe Illustrator 16.0.4, SVG Export Plug-In . SVG Version: 6.00 Build 0)  -->
<!DOCTYPE svg PUBLIC "-//W3C//DTD SVG 1.1//EN" "http://www.w3.org/Graphics/SVG/1.1/DTD/svg11.dtd">
<svg version="1.1" xmlns="http://www.w3.org/2000/svg" xmlns:xlink="http://www.w3.org/1999/xlink" x="0px" y="0px"
	 width="357.121px" height="267.121px" viewBox="0 0 357.121 267.121" enable-background="new 0 0 357.121 267.121"
	 xml:space="preserve">
<g id="Layer_2" display="none">
</g>
<g id="Layer_3">
</g>
<g id="Layer_1">
	<g>
		<polygon opacity="0.4" fill="#9FC14B" points="101.123,45.232 276.963,45.232 260.879,101.779 118.281,101.779 		"/>
		<polygon opacity="0.4" fill="#FDE27E" points="116.328,101.377 261.756,101.377 248.455,157.922 130.516,157.922 		"/>
		<polygon fill="#A68C6F" points="124.518,153.633 252.396,153.633 240.703,205.879 136.992,205.879 		"/>
		<line fill="#A68C6F" x1="242.26" y1="202.206" x2="138.553" y2="202.206"/>
		
			<polygon fill="none" stroke="#697733" stroke-width="8.7914" stroke-linecap="round" stroke-linejoin="round" stroke-miterlimit="10" points="
			101.514,46.807 276.182,46.807 238.752,205.879 137.383,205.879 		"/>
		
			<polyline fill="none" stroke="#697733" stroke-width="7.018" stroke-linecap="round" stroke-linejoin="round" stroke-miterlimit="10" points="
			269.166,98.269 306.594,98.269 284.762,151.293 250.451,151.293 		"/>
		
			<polyline fill="none" stroke="#697733" stroke-width="7.018" stroke-linecap="round" stroke-linejoin="round" stroke-miterlimit="10" points="
			137.383,205.879 120.229,223.031 251.229,223.031 236.416,208.216 		"/>
		
			<line fill="none" stroke="#697733" stroke-width="7.018" stroke-linecap="round" stroke-linejoin="round" stroke-miterlimit="10" x1="80.977" y1="222.625" x2="285.279" y2="222.625"/>
	</g>
</g>
<g id="Layer_4">
</g>
<g id="Layer_5">
</g>
</svg>
