<?xml version="1.0" encoding="utf-8"?>
<!-- Generator: Adobe Illustrator 16.0.4, SVG Export Plug-In . SVG Version: 6.00 Build 0)  -->
<!DOCTYPE svg PUBLIC "-//W3C//DTD SVG 1.1//EN" "http://www.w3.org/Graphics/SVG/1.1/DTD/svg11.dtd">
<svg version="1.1" xmlns="http://www.w3.org/2000/svg" xmlns:xlink="http://www.w3.org/1999/xlink" x="0px" y="0px"
	 width="357.12px" height="267.119px" viewBox="0 0 357.12 267.119" enable-background="new 0 0 357.12 267.119"
	 xml:space="preserve">
<g id="Layer_2" display="none">
</g>
<g id="Layer_3">
</g>
<g id="Layer_1">
	<polyline fill="#FEE37E" points="175.548,109.559 175.548,182.559 148.548,209.559 211.548,209.559 185.548,183.559 
		185.548,108.559 	"/>
	<polyline fill="#FEE37E" points="64.548,154.114 64.548,194.67 49.548,209.669 84.548,209.669 70.104,195.225 70.104,153.559 	"/>
	<polyline fill="#FEE37E" points="291.61,154.114 291.61,194.67 306.61,209.669 271.61,209.669 286.055,195.225 286.055,153.559 	
		"/>
	<path fill="none" stroke="#697733" stroke-width="3" stroke-linecap="round" stroke-linejoin="round" stroke-miterlimit="10" d="
		M277.548,104.059c0,2.658-3.134,4.812-7,4.812h-178c-3.866,0-7-2.154-7-4.812l0,0c0-2.658,3.134-4.812,7-4.812h178
		C274.414,99.246,277.548,101.4,277.548,104.059L277.548,104.059z"/>
	
		<polyline fill="none" stroke="#697733" stroke-width="3" stroke-linecap="round" stroke-linejoin="round" stroke-miterlimit="10" points="
		175.548,109.559 175.548,182.559 148.548,209.559 211.548,209.559 185.548,183.559 185.548,109.559 	"/>
	<path fill="none" stroke="#697733" stroke-width="3" stroke-linecap="round" stroke-linejoin="round" stroke-miterlimit="10" d="
		M43.548,66.559v75.5c0,0,44,0,60.5,0s10.5,10.5,10.5,10.5h-78v-86C36.548,66.559,40.048,60.809,43.548,66.559z"/>
	
		<polyline fill="none" stroke="#697733" stroke-width="3" stroke-linecap="round" stroke-linejoin="round" stroke-miterlimit="10" points="
		64.548,154.114 64.548,194.67 49.548,209.669 84.548,209.669 70.104,195.225 70.104,153.559 	"/>
	<path fill="none" stroke="#697733" stroke-width="3" stroke-linecap="round" stroke-linejoin="round" stroke-miterlimit="10" d="
		M312.61,66.559v75.5c0,0-44,0-60.5,0s-10.5,10.5-10.5,10.5h78v-86C319.61,66.559,316.11,60.809,312.61,66.559z"/>
	
		<polyline fill="none" stroke="#697733" stroke-width="3" stroke-linecap="round" stroke-linejoin="round" stroke-miterlimit="10" points="
		291.61,154.114 291.61,194.67 306.61,209.669 271.61,209.669 286.055,195.225 286.055,153.559 	"/>
</g>
<g id="Layer_4">
</g>
<g id="Layer_5">
</g>
</svg>
