<?xml version="1.0" encoding="utf-8"?>
<!-- Generator: Adobe Illustrator 16.0.4, SVG Export Plug-In . SVG Version: 6.00 Build 0)  -->
<!DOCTYPE svg PUBLIC "-//W3C//DTD SVG 1.1//EN" "http://www.w3.org/Graphics/SVG/1.1/DTD/svg11.dtd">
<svg version="1.1" xmlns="http://www.w3.org/2000/svg" xmlns:xlink="http://www.w3.org/1999/xlink" x="0px" y="0px" width="357px"
	 height="267.119px" viewBox="0 0 357 267.119" enable-background="new 0 0 357 267.119" xml:space="preserve">
<g id="Layer_2" display="none">
</g>
<g id="Layer_3">
</g>
<g id="Layer_1">
</g>
<g id="Layer_4">
</g>
<g id="Layer_5">
	<rect x="57.423" y="120.655" fill="#FEE37E" width="239.987" height="60.496"/>
	
		<rect x="56" y="93.058" fill="none" stroke="#697733" stroke-width="3" stroke-linecap="round" stroke-linejoin="round" stroke-miterlimit="10" width="242" height="88.002"/>
	
		<polyline fill="none" stroke="#697733" stroke-width="3" stroke-linecap="round" stroke-linejoin="round" stroke-miterlimit="10" points="
		57,180.06 38,199.06 314,199.06 297.5,182.56 	"/>
	
		<rect x="49" y="199.06" fill="none" stroke="#697733" stroke-width="3" stroke-linecap="round" stroke-linejoin="round" stroke-miterlimit="10" width="30" height="11"/>
	
		<rect x="274" y="199.56" fill="none" stroke="#697733" stroke-width="3" stroke-linecap="round" stroke-linejoin="round" stroke-miterlimit="10" width="30" height="11"/>
	
		<line fill="none" stroke="#697733" stroke-width="3" stroke-linecap="round" stroke-linejoin="round" stroke-miterlimit="10" x1="56" y1="166.06" x2="296" y2="166.06"/>
	
		<rect x="43" y="66.06" fill="#FFFFFF" stroke="#697733" stroke-width="3" stroke-linecap="round" stroke-linejoin="round" stroke-miterlimit="10" width="265" height="56"/>
	
		<polygon fill="#FFFFFF" stroke="#697733" stroke-width="3" stroke-linecap="round" stroke-linejoin="round" stroke-miterlimit="10" points="
		79,122.06 115,122.06 105.571,137.488 87.571,137.488 	"/>
	
		<polygon fill="#FFFFFF" stroke="#697733" stroke-width="3" stroke-linecap="round" stroke-linejoin="round" stroke-miterlimit="10" points="
		242,122.06 278,122.06 268.571,137.488 250.571,137.488 	"/>
	
		<circle fill="#FFFFFF" stroke="#697733" stroke-width="3" stroke-linecap="round" stroke-linejoin="round" stroke-miterlimit="10" cx="146" cy="98.394" r="6.5"/>
	
		<circle fill="#FFFFFF" stroke="#697733" stroke-width="3" stroke-linecap="round" stroke-linejoin="round" stroke-miterlimit="10" cx="179.75" cy="98.394" r="6.5"/>
	
		<circle fill="#FFFFFF" stroke="#697733" stroke-width="3" stroke-linecap="round" stroke-linejoin="round" stroke-miterlimit="10" cx="213.5" cy="98.394" r="6.5"/>
	
		<circle fill="#FFFFFF" stroke="#697733" stroke-width="3" stroke-linecap="round" stroke-linejoin="round" stroke-miterlimit="10" cx="74.715" cy="96.56" r="11.5"/>
	
		<path fill="#FFFFFF" stroke="#697733" stroke-width="3" stroke-linecap="round" stroke-linejoin="round" stroke-miterlimit="10" d="
		M78.821,96.56c0,2.722-2.206,4.929-4.929,4.929H36.929c-2.722,0-4.929-2.207-4.929-4.929l0,0c0-2.722,2.207-4.929,4.929-4.929
		h36.964C76.615,91.631,78.821,93.838,78.821,96.56L78.821,96.56z"/>
	
		<circle fill="#FFFFFF" stroke="#697733" stroke-width="3" stroke-linecap="round" stroke-linejoin="round" stroke-miterlimit="10" cx="284.5" cy="97.56" r="11.5"/>
	
		<path fill="#FFFFFF" stroke="#697733" stroke-width="3" stroke-linecap="round" stroke-linejoin="round" stroke-miterlimit="10" d="
		M280.394,97.56c0-2.722,2.206-4.929,4.929-4.929h36.964c2.722,0,4.929,2.207,4.929,4.929l0,0c0,2.722-2.207,4.929-4.929,4.929
		h-36.964C282.6,102.488,280.394,100.281,280.394,97.56L280.394,97.56z"/>
</g>
</svg>
