<?xml version="1.0" encoding="utf-8"?>
<!-- Generator: Adobe Illustrator 16.0.4, SVG Export Plug-In . SVG Version: 6.00 Build 0)  -->
<!DOCTYPE svg PUBLIC "-//W3C//DTD SVG 1.1//EN" "http://www.w3.org/Graphics/SVG/1.1/DTD/svg11.dtd">
<svg version="1.1" xmlns="http://www.w3.org/2000/svg" xmlns:xlink="http://www.w3.org/1999/xlink" x="0px" y="0px"
	 width="357.121px" height="267.121px" viewBox="0 0 357.121 267.121" enable-background="new 0 0 357.121 267.121"
	 xml:space="preserve">
<g id="Layer_2" display="none">
</g>
<g id="Layer_3">
</g>
<g id="Layer_1">
</g>
<g id="Layer_4">
	
		<path fill="#FEE37E" stroke="#697733" stroke-width="3" stroke-linecap="round" stroke-linejoin="round" stroke-miterlimit="10" d="
		M230.094,231.305c-5.093,0-8.914-2.545-11.452-7.627l-26.686-64.836l-30.517,26.695l5.089,15.254v2.544
		c0,7.63-6.356,12.713-13.989,12.713c-3.812,0-7.641-1.274-10.175-3.809l-33.045-33.055c-3.821-3.818-5.089-10.175-3.821-15.261
		c2.548-5.082,6.355-8.894,12.709-8.894h2.548l15.26,5.082l26.686-30.503l-64.826-26.702c-3.825-1.274-6.353-5.079-7.62-8.904
		c-1.28-3.805,0-7.624,3.795-11.435l7.637-7.631c2.545-2.541,5.079-3.812,8.904-3.812l97.874,10.165l31.784-31.781
		c12.709-12.709,30.51-20.34,48.318-21.606c1.26,0,3.809,0,5.086,1.267c1.267,1.268,2.53,2.545,1.267,5.093
		c-1.267,17.795-8.897,35.593-21.613,48.306l-31.78,31.777l10.164,96.619c0,3.809-1.264,7.631-3.808,10.165l-7.634,7.63
		C236.449,230.037,232.625,231.305,230.094,231.305"/>
</g>
<g id="Layer_5">
</g>
</svg>
