<?xml version="1.0" encoding="utf-8"?>
<!-- Generator: Adobe Illustrator 16.0.4, SVG Export Plug-In . SVG Version: 6.00 Build 0)  -->
<!DOCTYPE svg PUBLIC "-//W3C//DTD SVG 1.1//EN" "http://www.w3.org/Graphics/SVG/1.1/DTD/svg11.dtd">
<svg version="1.1" xmlns="http://www.w3.org/2000/svg" xmlns:xlink="http://www.w3.org/1999/xlink" x="0px" y="0px"
	 width="357.121px" height="267.119px" viewBox="0 0 357.121 267.119" enable-background="new 0 0 357.121 267.119"
	 xml:space="preserve">
<g id="Layer_2" display="none">
</g>
<g id="Layer_3">
</g>
<g id="Layer_1">
</g>
<g id="Layer_4">
</g>
<g id="Layer_5">
	
		<rect x="114.539" y="85.06" fill="#FFFFFF" stroke="#697733" stroke-width="3" stroke-linecap="round" stroke-linejoin="round" stroke-miterlimit="10" width="123.334" height="121"/>
	<rect x="107.483" y="85.655" fill="#FEE37E" width="140.987" height="45.496"/>
	
		<polyline fill="none" stroke="#697733" stroke-width="3" stroke-linecap="round" stroke-linejoin="round" stroke-miterlimit="10" points="
		114.837,205.06 105.04,224.06 247.373,224.06 238.864,207.56 	"/>
	
		<rect x="114.061" y="224.06" fill="none" stroke="#697733" stroke-width="3" stroke-linecap="round" stroke-linejoin="round" stroke-miterlimit="10" width="30" height="11"/>
	
		<rect x="208.061" y="224.56" fill="none" stroke="#697733" stroke-width="3" stroke-linecap="round" stroke-linejoin="round" stroke-miterlimit="10" width="30" height="11"/>
	
		<line fill="none" stroke="#697733" stroke-width="3" stroke-linecap="round" stroke-linejoin="round" stroke-miterlimit="10" x1="130.207" y1="186.894" x2="222.207" y2="186.894"/>
	<path fill="none" stroke="#697733" stroke-width="3" stroke-linecap="round" stroke-linejoin="round" stroke-miterlimit="10" d="
		M239.736,83.394"/>
	
		<polyline fill="none" stroke="#697733" stroke-width="3" stroke-linecap="round" stroke-linejoin="round" stroke-miterlimit="10" points="
		115.603,84.561 94.061,64.228 94.061,52.561 262.104,52.561 262.104,64.228 240.562,84.561 	"/>
	
		<line fill="none" stroke="#697733" stroke-width="3" stroke-linecap="round" stroke-linejoin="round" stroke-miterlimit="10" x1="98.561" y1="62.56" x2="257.061" y2="62.56"/>
	<path fill="none" stroke="#697733" stroke-width="3" stroke-linecap="round" stroke-linejoin="round" stroke-miterlimit="10" d="
		M96.752,52.263C108.766,41.058,140.3,33.06,177.311,33.06c35.519,0,66.994,8.366,80.012,18.863"/>
	
		<polygon fill="#FFFFFF" stroke="#697733" stroke-width="3" stroke-linecap="round" stroke-linejoin="round" stroke-miterlimit="10" points="
		158.707,131.393 194.707,131.393 185.277,146.821 167.277,146.821 	"/>
	
		<rect x="107.561" y="85.06" fill="none" stroke="#697733" stroke-width="3" stroke-linecap="round" stroke-linejoin="round" stroke-miterlimit="10" width="142" height="46.5"/>
</g>
</svg>
