<?xml version="1.0" encoding="utf-8"?>
<!-- Generator: Adobe Illustrator 16.0.4, SVG Export Plug-In . SVG Version: 6.00 Build 0)  -->
<!DOCTYPE svg PUBLIC "-//W3C//DTD SVG 1.1//EN" "http://www.w3.org/Graphics/SVG/1.1/DTD/svg11.dtd">
<svg version="1.1" xmlns="http://www.w3.org/2000/svg" xmlns:xlink="http://www.w3.org/1999/xlink" x="0px" y="0px"
	 width="357.121px" height="192.96px" viewBox="0 0 357.121 192.96" enable-background="new 0 0 357.121 192.96"
	 xml:space="preserve">
<g id="Layer_2" display="none">
</g>
<g id="Layer_3">
</g>
<g id="Layer_1">
	<polyline fill="#FEE37E" points="278.199,162.682 192.812,78.019 142.238,127.874 120.561,106.509 62.208,164.036 	"/>
	<polygon fill="#FFFFFF" points="192.542,76.81 171.793,96.542 184.636,104.61 192.045,96.542 201.455,104.61 212.284,97.55 	"/>
	<path fill="#FEE37E" d="M71.912,63.953c0,6.775-5.49,12.265-12.263,12.265c-6.778,0-12.265-5.489-12.265-12.265
		c0-6.771,5.486-12.264,12.265-12.264C66.422,51.689,71.912,57.182,71.912,63.953z"/>
	
		<polyline fill="none" stroke="#697733" stroke-width="3.0258" stroke-linecap="round" stroke-linejoin="round" stroke-miterlimit="10" points="
		243.389,125.855 192.812,76.002 142.238,125.855 120.561,104.492 62.208,162.018 	"/>
	
		<polygon fill="#FFFFFF" stroke="#697733" stroke-width="3.0258" stroke-linecap="round" stroke-linejoin="round" stroke-miterlimit="10" points="
		257.84,113.119 214.488,162.978 301.193,162.978 	"/>
	
		<polyline fill="none" stroke="#697733" stroke-width="3.0258" stroke-linecap="round" stroke-linejoin="round" stroke-miterlimit="10" points="
		171.143,97.369 185.592,104.492 192.812,97.369 200.041,104.492 214.488,97.369 	"/>
	
		<line fill="none" stroke="#697733" stroke-width="3.0258" stroke-linecap="round" stroke-linejoin="round" stroke-miterlimit="10" x1="45.325" y1="163.037" x2="310.582" y2="163.037"/>
	
		<path fill="none" stroke="#697733" stroke-width="3.0258" stroke-linecap="round" stroke-linejoin="round" stroke-miterlimit="10" d="
		M71.193,62.899c0,6.776-5.489,12.267-12.264,12.267c-6.776,0-12.266-5.49-12.266-12.267c0-6.772,5.489-12.264,12.266-12.264
		C65.704,50.636,71.193,56.127,71.193,62.899z"/>
	
		<line fill="none" stroke="#697733" stroke-width="3.0258" stroke-linecap="round" stroke-linejoin="round" stroke-miterlimit="10" x1="58.93" y1="8.971" x2="58.93" y2="37.075"/>
	
		<line fill="none" stroke="#697733" stroke-width="3.0258" stroke-linecap="round" stroke-linejoin="round" stroke-miterlimit="10" x1="87.527" y1="38.721" x2="79.576" y2="46.668"/>
	
		<line fill="none" stroke="#697733" stroke-width="3.0258" stroke-linecap="round" stroke-linejoin="round" stroke-miterlimit="10" x1="58.93" y1="87.656" x2="58.93" y2="115.759"/>
	
		<line fill="none" stroke="#697733" stroke-width="3.0258" stroke-linecap="round" stroke-linejoin="round" stroke-miterlimit="10" x1="5" y1="62.899" x2="33.102" y2="62.899"/>
	
		<line fill="none" stroke="#697733" stroke-width="3.0258" stroke-linecap="round" stroke-linejoin="round" stroke-miterlimit="10" x1="83.685" y1="62.899" x2="111.787" y2="62.899"/>
	
		<line fill="none" stroke="#697733" stroke-width="3.0258" stroke-linecap="round" stroke-linejoin="round" stroke-miterlimit="10" x1="42.562" y1="84.485" x2="34.613" y2="92.434"/>
	
		<line fill="none" stroke="#697733" stroke-width="3.0258" stroke-linecap="round" stroke-linejoin="round" stroke-miterlimit="10" x1="33.41" y1="39.12" x2="41.357" y2="47.07"/>
	
		<line fill="none" stroke="#697733" stroke-width="3.0258" stroke-linecap="round" stroke-linejoin="round" stroke-miterlimit="10" x1="79.177" y1="84.084" x2="87.125" y2="92.033"/>
	
		<line fill="none" stroke="#697733" stroke-width="3.0258" stroke-linecap="round" stroke-linejoin="round" stroke-miterlimit="10" x1="343.867" y1="163.037" x2="320.668" y2="163.037"/>
	
		<line fill="none" stroke="#697733" stroke-width="3.0258" stroke-linecap="round" stroke-linejoin="round" stroke-miterlimit="10" x1="26.161" y1="163.037" x2="37.256" y2="163.037"/>
</g>
<g id="Layer_4">
</g>
<g id="Layer_5">
</g>
</svg>
