<?xml version="1.0" encoding="utf-8"?>
<!-- Generator: Adobe Illustrator 16.0.4, SVG Export Plug-In . SVG Version: 6.00 Build 0)  -->
<!DOCTYPE svg PUBLIC "-//W3C//DTD SVG 1.1//EN" "http://www.w3.org/Graphics/SVG/1.1/DTD/svg11.dtd">
<svg version="1.1" xmlns="http://www.w3.org/2000/svg" xmlns:xlink="http://www.w3.org/1999/xlink" x="0px" y="0px"
	 width="357.121px" height="267.121px" viewBox="0 0 357.121 267.121" enable-background="new 0 0 357.121 267.121"
	 xml:space="preserve">
<g id="Layer_2" display="none">
</g>
<g id="Layer_3">
</g>
<g id="Layer_1">
	<g>
		<polygon opacity="0.4" fill="#9FC14B" points="102.164,60.252 272.154,60.252 265.139,84.423 112.305,84.423 		"/>
		<polygon opacity="0.4" fill="#FDE27E" points="111.133,84.606 263.578,84.606 245.602,185.6 127.66,185.6 		"/>
		<polygon fill="#A68C6F" points="126.729,184.82 245.254,184.82 238.234,216.012 136.867,216.012 		"/>
		<line fill="#A68C6F" x1="240.576" y1="213.898" x2="136.867" y2="213.898"/>
		
			<polygon fill="none" stroke="#697733" stroke-width="8.7914" stroke-linecap="round" stroke-linejoin="round" stroke-miterlimit="10" points="
			99.828,58.498 274.496,58.498 237.066,217.571 135.697,217.571 		"/>
		
			<polyline fill="none" stroke="#697733" stroke-width="7.018" stroke-linecap="round" stroke-linejoin="round" stroke-miterlimit="10" points="
			267.477,109.96 304.906,109.96 283.076,162.985 248.762,162.985 		"/>
		
			<polyline fill="none" stroke="#697733" stroke-width="7.018" stroke-linecap="round" stroke-linejoin="round" stroke-miterlimit="10" points="
			135.697,217.571 118.541,234.726 249.545,234.726 234.73,219.91 		"/>
		
			<line fill="none" stroke="#697733" stroke-width="7.018" stroke-linecap="round" stroke-linejoin="round" stroke-miterlimit="10" x1="79.293" y1="234.317" x2="283.596" y2="234.317"/>
	</g>
</g>
<g id="Layer_4">
</g>
<g id="Layer_5">
</g>
</svg>
