<?xml version="1.0" encoding="utf-8"?>
<!-- Generator: Adobe Illustrator 16.0.4, SVG Export Plug-In . SVG Version: 6.00 Build 0)  -->
<!DOCTYPE svg PUBLIC "-//W3C//DTD SVG 1.1//EN" "http://www.w3.org/Graphics/SVG/1.1/DTD/svg11.dtd">
<svg version="1.1" xmlns="http://www.w3.org/2000/svg" xmlns:xlink="http://www.w3.org/1999/xlink" x="0px" y="0px"
	 width="357.121px" height="267.121px" viewBox="0 0 357.121 267.121" enable-background="new 0 0 357.121 267.121"
	 xml:space="preserve">
<g id="Layer_2" display="none">
</g>
<g id="Layer_3">
</g>
<g id="Layer_1">
</g>
<g id="Layer_4">
	<g>
		
			<path fill="#FEE37E" stroke="#697733" stroke-width="3" stroke-linecap="round" stroke-linejoin="round" stroke-miterlimit="10" d="
			M177.608,229.875c-5.849,0-11.697-3.506-15.192-9.351L113.275,136.3c-21.038-36.258-10.518-84.219,24.573-105.27
			c11.697-7.019,25.733-11.697,39.76-11.697c26.91,0,52.637,14.04,65.51,38.597c12.866,23.394,14.036,51.474,0,74.864v1.166
			l-50.29,87.724C189.306,226.369,183.46,229.875,177.608,229.875"/>
		
			<path fill="#FFFFFF" stroke="#697733" stroke-width="3" stroke-linecap="round" stroke-linejoin="round" stroke-miterlimit="10" d="
			M177.608,124.609c-16.369,0-29.239-12.874-29.239-29.243c0-16.379,12.87-29.245,29.239-29.245
			c16.379,0,29.239,12.866,29.239,29.245C206.848,111.735,193.987,124.609,177.608,124.609"/>
	</g>
</g>
<g id="Layer_5">
</g>
</svg>
