<?xml version="1.0" encoding="UTF-8"?>
<svg width="120px" height="187px" viewBox="0 0 120 187" version="1.1" xmlns="http://www.w3.org/2000/svg" xmlns:xlink="http://www.w3.org/1999/xlink">
    <!-- Generator: Sketch 49 (51002) - http://www.bohemiancoding.com/sketch -->
    <title>Logo</title>
    <desc>Created with Sketch.</desc>
    <defs>
        <polygon id="path-1" points="0 113 70.8200582 113 70.8200582 0.0710325059 0 0.0710325059"></polygon>
    </defs>
    <g id="Logo" stroke="none" stroke-width="1" fill="none" fill-rule="evenodd">
        <g id="Page-1" transform="translate(24.000000, 37.000000)">
            <polygon id="Fill-1" fill="#321D1D" points="0 0 0 112.480307 69.9527055 112.532613 69.9527055 0"></polygon>
            <polygon id="Stroke-2" stroke="#9FC14B" stroke-width="3.054" points="70.7584595 112.772258 1 112.772258 1 1 70.9527055 1"></polygon>
            <polygon id="Fill-4" fill="#9FC14B" points="4 94.1242659 4 85 7.80177747 85 7.80177747 85.8313023 4.81469506 85.8313023 4.81469506 88.9069279 7.80177747 88.9069279 7.80177747 89.7386159 4.81469506 89.7386159 4.81469506 93.2921921 7.80177747 93.2921921 7.80177747 94.1242659"></polygon>
            <g id="Group-48">
                <path d="M9.27707037,90.7603057 C9.27707037,92.1643924 9.62192751,92.8656544 10.7834725,92.8656544 C11.6602661,92.8656544 12.1824354,92.3554326 12.1824354,91.1177735 C12.1824354,88.6151081 8.64595926,89.8535485 8.64595926,86.6500118 C8.64595926,85.0037064 9.51336138,84.1606293 10.7444037,84.1606293 C12.0246577,84.1606293 12.7928852,85.1943559 12.7928852,86.9441902 L12.0246577,86.9441902 C12.0246577,85.6670729 11.5719857,85.0037064 10.6463561,85.0037064 C9.92696455,85.0037064 9.4149381,85.5518237 9.4149381,86.5605471 C9.4149381,89.036256 12.9499116,87.5817721 12.9499116,91.0790966 C12.9499116,92.9172235 11.9258587,93.7083408 10.7053349,93.7083408 C9.1970545,93.7083408 8.50884286,92.6238264 8.50884286,90.7603057 L9.27707037,90.7603057 Z" id="Fill-5" fill="#9FC14B"></path>
                <polygon id="Fill-7" fill="#9FC14B" points="13.5693021 84.3141647 17.7447783 84.3141647 17.7447783 85.2330328 16.0419053 85.2330328 16.0419053 93.5551961 15.2729265 93.5551961 15.2729265 85.2330328 13.5693021 85.2330328"></polygon>
                <path d="M21.1712984,89.8792159 L20.2058487,85.1567339 L20.1859386,85.1567339 L19.2219915,89.8792159 L21.1712984,89.8792159 Z M18.4331026,93.5554696 L17.7441397,93.5554696 L19.6934466,84.3140475 L20.7178751,84.3140475 L22.7077534,93.5554696 L21.9695788,93.5554696 L21.3677693,90.7219023 L19.0243937,90.7219023 L18.4331026,93.5554696 Z" id="Fill-9" fill="#9FC14B"></path>
                <polygon id="Fill-11" fill="#9FC14B" points="22.7058751 84.3141647 26.8809757 84.3141647 26.8809757 85.2330328 25.177727 85.2330328 25.177727 93.5551961 24.4094995 93.5551961 24.4094995 85.2330328 22.7058751 85.2330328"></polygon>
                <polygon id="Fill-13" fill="#9FC14B" points="27.9632937 93.5553133 27.9632937 84.3146725 31.5482302 84.3146725 31.5482302 85.1565776 28.7315212 85.1565776 28.7315212 88.2714311 31.5482302 88.2714311 31.5482302 89.1137269 28.7315212 89.1137269 28.7315212 92.7126269 31.5482302 92.7126269 31.5482302 93.5553133"></polygon>
                <path d="M42.2886894,87.7094839 C42.2590122,86.4835451 41.7958217,85.0036674 40.6733455,85.0036674 C39.5801709,85.0036674 39.0087899,86.3304004 39.0087899,88.935032 C39.0087899,91.4111315 39.6387741,92.8663967 40.6733455,92.8663967 C41.6977741,92.8663967 42.200409,91.9733131 42.269155,90.3641219 L43.0373825,90.3641219 C43.0373825,92.2538179 42.2590122,93.7086924 40.6147423,93.7086924 C39.0087899,93.7086924 38.1815836,91.678744 38.1815836,88.935032 C38.1815836,86.1905386 39.0087899,84.1609809 40.6534354,84.1609809 C42.2195677,84.1609809 43.0272397,85.8205692 43.0373825,87.7094839 L42.2886894,87.7094839 Z" id="Fill-15" fill="#9FC14B"></path>
                <path d="M44.5518238,88.9347585 C44.5518238,91.5386088 45.1622735,92.8661232 46.4226175,92.8661232 C47.683337,92.8661232 48.2945381,91.5386088 48.2945381,88.9347585 C48.2945381,86.3309083 47.683337,85.0033939 46.4226175,85.0033939 C45.1622735,85.0033939 44.5518238,86.3309083 44.5518238,88.9347585 M49.1217444,88.9347585 C49.1217444,91.6792519 48.2945381,93.708419 46.4226175,93.708419 C44.5518238,93.708419 43.7246175,91.6792519 43.7246175,88.9347585 C43.7246175,86.1902652 44.5518238,84.1610981 46.4226175,84.1610981 C48.2945381,84.1610981 49.1217444,86.1902652 49.1217444,88.9347585" id="Fill-17" fill="#9FC14B"></path>
                <polygon id="Fill-19" fill="#9FC14B" points="50.2226952 93.5553133 50.2226952 84.3146725 53.5119862 84.3146725 53.5119862 85.1565776 50.9909228 85.1565776 50.9909228 88.2714311 53.5119862 88.2714311 53.5119862 89.1137269 50.9909228 89.1137269 50.9909228 93.5553133"></polygon>
                <polygon id="Fill-21" fill="#9FC14B" points="54.6726672 93.5553133 54.6726672 84.3146725 57.9619582 84.3146725 57.9619582 85.1565776 55.4408947 85.1565776 55.4408947 88.2714311 57.9619582 88.2714311 57.9619582 89.1137269 55.4408947 89.1137269 55.4408947 93.5553133"></polygon>
                <polygon id="Fill-23" fill="#9FC14B" points="59.1226392 93.5553133 59.1226392 84.3146725 62.7075757 84.3146725 62.7075757 85.1565776 59.8908667 85.1565776 59.8908667 88.2714311 62.7075757 88.2714311 62.7075757 89.1137269 59.8908667 89.1137269 59.8908667 92.7126269 62.7075757 92.7126269 62.7075757 93.5553133"></polygon>
                <polygon id="Fill-25" fill="#9FC14B" points="64.1140894 93.5553133 64.1140894 84.3146725 67.6990259 84.3146725 67.6990259 85.1565776 64.8823169 85.1565776 64.8823169 88.2714311 67.6990259 88.2714311 67.6990259 89.1137269 64.8823169 89.1137269 64.8823169 92.7126269 67.6990259 92.7126269 67.6990259 93.5553133"></polygon>
                <polygon id="Fill-27" fill="#9FC14B" points="3.49248624 102.822794 3.49248624 95.4796622 4.13148624 95.4796622 6.43616878 101.047565 6.45232222 101.047565 6.45232222 95.4796622 7.04511587 95.4796622 7.04511587 102.822794 6.48237513 102.822794 4.10105767 96.9806364 4.08603122 96.9806364 4.08603122 102.822794"></polygon>
                <mask id="mask-2" fill="white">
                    <use xlink:href="#path-1"></use>
                </mask>
                <g id="Clip-30"></g>
                <polygon id="Fill-29" fill="#9FC14B" mask="url(#mask-2)" points="11.8532434 102.82252 12.446037 102.82252 12.446037 95.4797794 11.8532434 95.4797794"></polygon>
                <path d="M20.1147508,98.1776262 C20.0914598,97.2040636 19.7338302,96.0273498 18.8668037,96.0273498 C18.0230683,96.0273498 17.5809148,97.0821729 17.5809148,99.1511888 C17.5809148,101.119411 18.067772,102.275028 18.8668037,102.275028 C19.6575709,102.275028 20.0460048,101.565562 20.0993487,100.286882 L20.6928937,100.286882 C20.6928937,101.789028 20.0914598,102.944645 18.8213487,102.944645 C17.5809148,102.944645 16.9422905,101.331547 16.9422905,99.1511888 C16.9422905,96.9712211 17.5809148,95.3577325 18.8514016,95.3577325 C20.0610312,95.3577325 20.6850048,96.6762613 20.6928937,98.1776262 L20.1147508,98.1776262 Z" id="Fill-31" fill="#9FC14B" mask="url(#mask-2)"></path>
                <path d="M27.2809423,99.9018712 L26.5356302,96.1494358 L26.520228,96.1494358 L25.7749159,99.9018712 L27.2809423,99.9018712 Z M25.1655931,102.82295 L24.6336566,102.82295 L26.1396831,95.4798185 L26.9312016,95.4798185 L28.4676566,102.82295 L27.8974026,102.82295 L27.4334608,100.571098 L25.622773,100.571098 L25.1655931,102.82295 Z" id="Fill-32" fill="#9FC14B" mask="url(#mask-2)"></path>
                <path d="M32.7130058,95.4798966 L34.379064,95.4798966 C35.5962069,95.4798966 36.105228,96.4534593 36.105228,97.6907277 C36.105228,98.847517 35.6724661,99.8202982 34.6987519,99.8413947 L36.2427201,102.823028 L35.5199476,102.823028 L33.7697413,99.2120169 L33.7697413,99.1721681 L34.3862016,99.1721681 C35.0943233,99.1721681 35.4666037,98.6244414 35.4666037,97.7012759 C35.4666037,96.6566104 35.0943233,96.149514 34.2952915,96.149514 L33.3061751,96.149514 L33.3061751,102.823028 L32.7130058,102.823028 L32.7130058,95.4798966 Z" id="Fill-33" fill="#9FC14B" mask="url(#mask-2)"></path>
                <path d="M42.7314815,99.9018712 L41.985418,96.1494358 L41.9707672,96.1494358 L41.2250794,99.9018712 L42.7314815,99.9018712 Z M40.615381,102.82295 L40.0834444,102.82295 L41.5898466,95.4798185 L42.3809894,95.4798185 L43.9178201,102.82295 L43.3479418,102.82295 L42.8836243,100.571098 L41.0733122,100.571098 L40.615381,102.82295 Z" id="Fill-34" fill="#9FC14B" mask="url(#mask-2)"></path>
                <path d="M51.1911878,97.822815 C51.1228175,96.8590192 50.7268704,96.0276624 49.9511296,96.0276624 C48.9398492,96.0276624 48.4905582,97.0820948 48.4905582,99.1515014 C48.4905582,101.220127 48.9398492,102.27495 49.9665317,102.27495 C50.8110185,102.27495 51.3283042,101.808483 51.3283042,99.8816733 L49.4721614,99.8816733 L49.4721614,99.212056 L51.9207222,99.212056 L51.9207222,100.225858 C51.9207222,101.889744 51.2141032,102.944567 49.9131878,102.944567 C48.4680185,102.944567 47.8515582,101.331469 47.8515582,99.1515014 C47.8515582,96.9707523 48.4680185,95.358045 49.9131878,95.358045 C51.0694735,95.358045 51.746791,96.3523135 51.7847328,97.822815 L51.1911878,97.822815 Z" id="Fill-35" fill="#9FC14B" mask="url(#mask-2)"></path>
                <path d="M57.0183344,95.4798966 L57.0183344,100.753621 C57.0183344,101.808054 57.4368212,102.275301 58.0908476,102.275301 C58.7452497,102.275301 59.1637365,101.808054 59.1637365,100.753621 L59.1637365,95.4798966 L59.7569058,95.4798966 L59.7569058,100.916142 C59.7569058,102.23389 59.1712497,102.944919 58.0908476,102.944919 C57.0108212,102.944919 56.4247894,102.23389 56.4247894,100.916142 L56.4247894,95.4798966 L57.0183344,95.4798966 Z" id="Fill-36" fill="#9FC14B" mask="url(#mask-2)"></path>
                <path d="M66.5427026,99.9018712 L65.7970148,96.1494358 L65.7819884,96.1494358 L65.0363005,99.9018712 L66.5427026,99.9018712 Z M64.4273534,102.82295 L63.8954169,102.82295 L65.4010677,95.4798185 L66.1918349,95.4798185 L67.7290413,102.82295 L67.159163,102.82295 L66.6948455,100.571098 L64.8841577,100.571098 L64.4273534,102.82295 Z" id="Fill-37" fill="#9FC14B" mask="url(#mask-2)"></path>
                <path d="M6.59901799,29.2486107 C6.77031958,32.4474594 7.30563704,35.3134527 9.18469524,35.3134527 C10.5990603,35.3134527 11.6234889,33.2600638 11.6234889,30.4425142 C11.6234889,22.3250646 4.11176402,27.5776928 4.11176402,14.2068337 C4.11176402,8.52446275 6.3071291,4.84781832 9.1354836,4.84781832 C12.3800709,4.84781832 13.9646106,9.14563633 14.1607058,15.0659285 L11.3556423,15.0659285 C11.1847164,12.4402004 10.4769704,10.1000559 9.01452063,10.1000559 C7.67228254,10.1000559 6.94086984,12.010067 6.94086984,14.5412517 C6.94086984,21.7515534 14.4525947,16.8806149 14.4525947,30.0604338 C14.4525947,36.4112501 12.3549016,40.5656903 9.11181693,40.5656903 C5.67263704,40.5656903 3.7939545,35.6947517 3.76953651,29.2486107 L6.59901799,29.2486107 Z" id="Fill-38" fill="#9FC14B" mask="url(#mask-2)"></path>
                <path d="M22.2329926,14.3977958 L22.1841566,14.3977958 L20.6721196,25.5718882 L23.7694476,25.5718882 L22.2329926,14.3977958 Z M20.9155481,5.42047005 L23.5741037,5.42047005 L29.0617651,39.9924916 L25.9640614,39.9924916 L24.5008603,30.8241257 L20.0620455,30.8241257 L18.6232624,39.9924916 L15.5018921,39.9924916 L20.9155481,5.42047005 Z" id="Fill-39" fill="#9FC14B" mask="url(#mask-2)"></path>
                <polygon id="Fill-40" fill="#9FC14B" mask="url(#mask-2)" points="30.9157667 39.9927651 30.9157667 5.42074352 34.134809 5.42074352 39.7197667 27.8162001 39.7689783 27.8162001 39.7689783 5.42074352 42.4519519 5.42074352 42.4519519 39.9927651 39.8178143 39.9927651 33.6468249 15.7353505 33.5983646 15.7353505 33.5983646 39.9927651"></polygon>
                <polygon id="Fill-41" fill="#9FC14B" mask="url(#mask-2)" points="44.6699693 10.9597367 44.6699693 5.42035285 54.8158317 5.42035285 54.8158317 10.9597367 51.2553132 10.9597367 51.2553132 39.9927651 48.2308635 39.9927651 48.2308635 10.9597367"></polygon>
                <path d="M61.2056439,14.3977958 L61.1571836,14.3977958 L59.6451466,25.5718882 L62.7420989,25.5718882 L61.2056439,14.3977958 Z M59.8885751,5.42047005 L62.5471307,5.42047005 L68.0344164,39.9924916 L64.937464,39.9924916 L63.4735116,30.8241257 L59.0346968,30.8241257 L57.5959138,39.9924916 L54.4741677,39.9924916 L59.8885751,5.42047005 Z" id="Fill-42" fill="#9FC14B" mask="url(#mask-2)"></path>
                <polygon id="Fill-43" fill="#9FC14B" mask="url(#mask-2)" points="4.72146243 78.7659516 4.72146243 44.19393 7.74516085 44.19393 7.74516085 73.5133234 13.3549122 73.5133234 13.3549122 78.7659516"></polygon>
                <path d="M19.3795815,44.1938519 L19.3795815,67.9742521 C19.3795815,71.9853145 20.1354122,73.8000008 22.2331053,73.8000008 C24.3307984,73.8000008 25.0862534,71.9853145 25.0862534,67.9742521 L25.0862534,44.1938519 L28.1114545,44.1938519 L28.1114545,69.5021828 C28.1114545,74.6594863 26.2816079,79.3382126 22.2331053,79.3382126 C18.184227,79.3382126 16.3555074,74.6594863 16.3555074,69.5021828 L16.3555074,44.1938519 L19.3795815,44.1938519 Z" id="Fill-44" fill="#9FC14B" mask="url(#mask-2)"></path>
                <path d="M41.134545,57.4688003 C40.9872857,51.4520113 40.0609048,48.8731642 38.1097196,48.8731642 C36.2073704,48.8731642 34.4759471,52.3111061 34.4759471,61.4802533 C34.4759471,70.7435533 35.9635661,74.0869518 37.9147513,74.0869518 C39.7686402,74.0869518 40.6953968,72.2718747 41.134545,65.9210585 L44.158619,65.9210585 C43.9880688,73.6087653 42.0365079,79.338408 38.0124233,79.338408 C34.0120053,79.338408 31.451873,74.372926 31.451873,61.4802533 C31.451873,49.9236899 34.4026931,43.620536 38.0124233,43.620536 C42.2558942,43.620536 44.1822857,50.2104455 44.158619,57.4688003 L41.134545,57.4688003 Z" id="Fill-45" fill="#9FC14B" mask="url(#mask-2)"></path>
                <polygon id="Fill-46" fill="#9FC14B" mask="url(#mask-2)" points="48.182328 78.7659125 51.2067778 78.7659125 51.2067778 44.193891 48.182328 44.193891"></polygon>
                <path d="M60.6696878,53.1709823 L60.6208519,53.1709823 L59.1088148,64.3454654 L62.2061429,64.3454654 L60.6696878,53.1709823 Z M59.3522434,44.1936566 L62.0111746,44.1936566 L67.4984603,78.7656781 L64.4011323,78.7656781 L62.9379312,69.5973122 L58.4987407,69.5973122 L57.0599577,78.7656781 L53.9382116,78.7656781 L59.3522434,44.1936566 Z" id="Fill-47" fill="#9FC14B" mask="url(#mask-2)"></path>
            </g>
        </g>
    </g>
</svg>