<?xml version="1.0" encoding="utf-8"?>
<!-- Generator: Adobe Illustrator 16.0.4, SVG Export Plug-In . SVG Version: 6.00 Build 0)  -->
<!DOCTYPE svg PUBLIC "-//W3C//DTD SVG 1.1//EN" "http://www.w3.org/Graphics/SVG/1.1/DTD/svg11.dtd">
<svg version="1.1" xmlns="http://www.w3.org/2000/svg" xmlns:xlink="http://www.w3.org/1999/xlink" x="0px" y="0px"
	 width="357.121px" height="267.121px" viewBox="0 0 357.121 267.121" enable-background="new 0 0 357.121 267.121"
	 xml:space="preserve">
<g id="Layer_2" display="none">
</g>
<g id="Layer_3">
</g>
<g id="Layer_1">
	<g>
		<polygon opacity="0.4" fill="#9FC14B" points="152.491,94.73 227.657,94.73 220.782,118.902 159.825,118.902 		"/>
		<polygon opacity="0.4" fill="#FDE27E" points="158.991,118.73 221.157,118.73 215.472,142.902 165.057,142.902 		"/>
		<polygon fill="#A68C6F" points="162.491,141.069 217.157,141.069 212.157,163.402 167.824,163.402 		"/>
		<line fill="#A68C6F" x1="212.824" y1="161.833" x2="168.491" y2="161.833"/>
		
			<polygon fill="none" stroke="#697733" stroke-width="3.7581" stroke-linecap="round" stroke-linejoin="round" stroke-miterlimit="10" points="
			152.658,95.402 227.324,95.402 211.324,163.402 167.991,163.402 		"/>
		
			<polyline fill="none" stroke="#697733" stroke-width="3" stroke-linecap="round" stroke-linejoin="round" stroke-miterlimit="10" points="
			224.324,117.401 240.324,117.401 230.991,140.068 216.324,140.068 		"/>
		
			<polyline fill="none" stroke="#697733" stroke-width="3" stroke-linecap="round" stroke-linejoin="round" stroke-miterlimit="10" points="
			167.991,163.402 160.658,170.735 216.658,170.735 210.325,164.401 		"/>
		
			<line fill="none" stroke="#697733" stroke-width="3" stroke-linecap="round" stroke-linejoin="round" stroke-miterlimit="10" x1="143.88" y1="170.561" x2="231.214" y2="170.561"/>
	</g>
</g>
<g id="Layer_4">
</g>
<g id="Layer_5">
</g>
</svg>
