<?xml version="1.0" encoding="utf-8"?>
<!-- Generator: Adobe Illustrator 16.0.4, SVG Export Plug-In . SVG Version: 6.00 Build 0)  -->
<!DOCTYPE svg PUBLIC "-//W3C//DTD SVG 1.1//EN" "http://www.w3.org/Graphics/SVG/1.1/DTD/svg11.dtd">
<svg version="1.1" xmlns="http://www.w3.org/2000/svg" xmlns:xlink="http://www.w3.org/1999/xlink" x="0px" y="0px"
	 width="356.982px" height="192.805px" viewBox="0 0 356.982 192.805" enable-background="new 0 0 356.982 192.805"
	 xml:space="preserve">
<g id="Layer_2" display="none">
</g>
<g id="Layer_3">
</g>
<g id="Layer_1">
	<polygon fill="#FEE37E" points="153.848,161.52 296.168,161.52 274.48,142.542 255.503,142.542 225.684,89.68 235.173,80.19 
		211.452,84.258 194.51,80.868 186.375,82.899 167.399,80.19 175.871,88.663 122.671,161.179 	"/>
	
		<polygon fill="none" stroke="#697733" stroke-width="3.0258" stroke-linecap="round" stroke-linejoin="round" stroke-miterlimit="10" points="
		153.51,160.848 295.833,160.848 274.145,141.871 255.168,141.871 225.348,89.008 234.838,79.519 211.114,83.585 194.174,80.195 
		186.039,82.228 167.062,79.519 175.535,87.99 122.334,160.505 	"/>
	
		<path fill="none" stroke="#697733" stroke-width="3.0258" stroke-linecap="round" stroke-linejoin="round" stroke-miterlimit="10" d="
		M134.733,34.881c15.022,0,22.532,15.02,22.532,15.02H65.124H42.592c0,0,0-22.53,22.532-22.53c0,0,17.348-42.781,43.923-9.118
		c0,0,18.602-22.148,33.66,7.083c0,0,23.035-10.629,25.69,15.059"/>
	
		<circle fill="#FFFFFF" stroke="#697733" stroke-width="3.0258" stroke-linecap="round" stroke-linejoin="round" stroke-miterlimit="10" cx="109.576" cy="68.704" r="33.465"/>
	
		<path fill="#FFFFFF" stroke="#697733" stroke-width="2.6944" stroke-linecap="round" stroke-linejoin="round" stroke-miterlimit="10" d="
		M137.463,68.704c0,15.398-12.484,27.888-27.888,27.888c-15.398,0-27.886-12.489-27.886-27.888
		c0-15.401,12.487-27.889,27.886-27.889C124.979,40.815,137.463,53.303,137.463,68.704z"/>
	<path fill="#FEE37E" d="M114.833,55.302c0,2.549-2.064,4.619-4.622,4.619c-2.551,0-4.617-2.07-4.617-4.619
		c0-2.555,4.617-6.934,4.617-6.934S114.833,52.747,114.833,55.302z"/>
	<path fill="#FEE37E" d="M110.211,78.403c0,3.832-3.101,6.934-6.93,6.934c-3.83,0-6.93-3.102-6.93-6.934
		c0-3.824,6.93-10.394,6.93-10.394S110.211,74.579,110.211,78.403z"/>
	<path fill="#FEE37E" d="M129.621,74.479c0,2.807-2.274,5.083-5.08,5.083c-2.81,0-5.086-2.276-5.086-5.083
		c0-2.808,5.086-7.628,5.086-7.628S129.621,71.671,129.621,74.479z"/>
	
		<rect x="44.382" y="107.662" transform="matrix(-0.7071 0.7071 -0.7071 -0.7071 193.9201 146.1587)" fill="#FEE37E" width="44.618" height="11.155"/>
	
		<polygon fill="#FFFFFF" stroke="#697733" stroke-width="3.0258" stroke-linecap="round" stroke-linejoin="round" stroke-miterlimit="10" points="
		124.309,128.314 163.945,160.658 84.672,160.658 	"/>
	
		<line fill="none" stroke="#697733" stroke-width="3.0258" stroke-linecap="round" stroke-linejoin="round" stroke-miterlimit="10" x1="217.896" y1="94.768" x2="221.96" y2="102.221"/>
	
		<line fill="#FFFFFF" stroke="#697733" stroke-width="3.0258" stroke-linecap="round" stroke-linejoin="round" stroke-miterlimit="10" x1="208.023" y1="94.768" x2="210.734" y2="111.031"/>
	
		<line fill="#FFFFFF" stroke="#697733" stroke-width="3.0258" stroke-linecap="round" stroke-linejoin="round" stroke-miterlimit="10" x1="198.832" y1="94.768" x2="198.832" y2="102.558"/>
	
		<line fill="#FFFFFF" stroke="#697733" stroke-width="3.0258" stroke-linecap="round" stroke-linejoin="round" stroke-miterlimit="10" x1="189.812" y1="94.768" x2="186.763" y2="112.05"/>
	
		<line fill="#FFFFFF" stroke="#697733" stroke-width="3.0258" stroke-linecap="round" stroke-linejoin="round" stroke-miterlimit="10" x1="179.6" y1="94.768" x2="175.872" y2="103.918"/>
	
		<path fill="none" stroke="#697733" stroke-width="3.0258" stroke-linecap="round" stroke-linejoin="round" stroke-miterlimit="10" d="
		M191.631,71.553v-7.084c0,0,0-7.501,9.149-7.501c7.114,0,4.828,0,4.828,0s9.406-0.834,9.406-7.715
		c0-8.958-10.167-8.334-10.167-8.334H194.3c0,0-8.768-0.416-8.768-7.189"/>
	
		<line fill="none" stroke="#697733" stroke-width="4.1952" stroke-linecap="round" stroke-linejoin="round" stroke-miterlimit="10" x1="185.532" y1="25.707" x2="185.532" y2="19.45"/>
	
		<path fill="none" stroke="#697733" stroke-width="3.0258" stroke-linecap="round" stroke-linejoin="round" stroke-miterlimit="10" d="
		M213.333,76.384v-8.897c0,0-0.099-7.366,7.369-7.366c8.897,0,9.661-1.528,9.661-10.675"/>
	
		<line fill="none" stroke="#697733" stroke-width="4.1952" stroke-linecap="round" stroke-linejoin="round" stroke-miterlimit="10" x1="185.785" y1="11.828" x2="185.785" y2="8.78"/>
	
		<line fill="none" stroke="#697733" stroke-width="4.1952" stroke-linecap="round" stroke-linejoin="round" stroke-miterlimit="10" x1="231.025" y1="43.089" x2="231.025" y2="33.176"/>
	
		<rect x="79.843" y="91.624" transform="matrix(0.7068 -0.7074 0.7074 0.7068 -42.9464 87.0708)" fill="none" stroke="#697733" stroke-width="3.7722" stroke-linecap="round" stroke-linejoin="round" stroke-miterlimit="10" width="7.438" height="7.436"/>
	
		<rect x="42.848" y="108.168" transform="matrix(-0.7071 0.7071 -0.7071 -0.7071 191.6604 148.1056)" fill="none" stroke="#697733" stroke-width="3.0258" stroke-linecap="round" stroke-linejoin="round" stroke-miterlimit="10" width="44.617" height="11.156"/>
	
		<path fill="none" stroke="#697733" stroke-width="3.3487" stroke-linecap="round" stroke-linejoin="round" stroke-miterlimit="10" d="
		M113.668,56.267c0,2.549-2.071,4.62-4.621,4.62c-2.554,0-4.621-2.071-4.621-4.62c0-2.557,4.621-6.937,4.621-6.937
		S113.668,53.71,113.668,56.267z"/>
	
		<path fill="none" stroke="#697733" stroke-width="3.3487" stroke-linecap="round" stroke-linejoin="round" stroke-miterlimit="10" d="
		M109.047,79.372c0,3.828-3.105,6.931-6.934,6.931c-3.826,0-6.93-3.103-6.93-6.931s6.93-10.399,6.93-10.399
		S109.047,75.544,109.047,79.372z"/>
	
		<path fill="none" stroke="#697733" stroke-width="3.3487" stroke-linecap="round" stroke-linejoin="round" stroke-miterlimit="10" d="
		M128.454,75.442c0,2.809-2.278,5.083-5.083,5.083c-2.808,0-5.082-2.274-5.082-5.083c0-2.807,5.082-7.625,5.082-7.625
		S128.454,72.636,128.454,75.442z"/>
	
		<line fill="none" stroke="#697733" stroke-width="3.0258" stroke-linecap="round" stroke-linejoin="round" stroke-miterlimit="10" x1="37.646" y1="161.395" x2="303.99" y2="161.395"/>
	
		<line fill="none" stroke="#697733" stroke-width="3.0258" stroke-linecap="round" stroke-linejoin="round" stroke-miterlimit="10" x1="28.646" y1="161.395" x2="5.449" y2="161.395"/>
	
		<line fill="none" stroke="#697733" stroke-width="3.0258" stroke-linecap="round" stroke-linejoin="round" stroke-miterlimit="10" x1="311.051" y1="161.395" x2="322.146" y2="161.395"/>
	
		<line fill="none" stroke="#697733" stroke-width="3.0258" stroke-linecap="round" stroke-linejoin="round" stroke-miterlimit="10" x1="331.221" y1="161.395" x2="352.402" y2="161.395"/>
</g>
<g id="Layer_4">
</g>
<g id="Layer_5">
</g>
</svg>
