<?xml version="1.0" encoding="utf-8"?>
<!-- Generator: Adobe Illustrator 16.0.4, SVG Export Plug-In . SVG Version: 6.00 Build 0)  -->
<!DOCTYPE svg PUBLIC "-//W3C//DTD SVG 1.1//EN" "http://www.w3.org/Graphics/SVG/1.1/DTD/svg11.dtd">
<svg version="1.1" xmlns="http://www.w3.org/2000/svg" xmlns:xlink="http://www.w3.org/1999/xlink" x="0px" y="0px"
	 width="357.121px" height="267.121px" viewBox="0 0 357.121 267.121" enable-background="new 0 0 357.121 267.121"
	 xml:space="preserve">
<g id="Layer_2" display="none">
</g>
<g id="Layer_3">
</g>
<g id="Layer_1">
	<g>
		<polygon opacity="0.4" fill="#FDE27E" points="110.48,81.606 267.604,81.606 247.287,163.885 129.348,163.885 		"/>
		<polygon opacity="0.9" fill="#543230" points="122.176,160.366 251.229,160.366 246.842,180.652 125.297,180.652 		"/>
		<polygon fill="#A68C6F" points="126.859,180.652 245.383,180.652 238.365,211.842 136.994,211.842 		"/>
		<line fill="#A68C6F" x1="242.26" y1="210.899" x2="138.553" y2="210.899"/>
		
			<polygon fill="none" stroke="#697733" stroke-width="8.7914" stroke-linecap="round" stroke-linejoin="round" stroke-miterlimit="10" points="
			101.514,55.498 276.182,55.498 238.752,214.572 137.383,214.572 		"/>
		
			<polyline fill="none" stroke="#697733" stroke-width="7.018" stroke-linecap="round" stroke-linejoin="round" stroke-miterlimit="10" points="
			269.166,106.96 306.594,106.96 284.762,159.985 250.451,159.985 		"/>
		
			<polyline fill="none" stroke="#697733" stroke-width="7.018" stroke-linecap="round" stroke-linejoin="round" stroke-miterlimit="10" points="
			137.383,214.572 120.229,231.726 251.229,231.726 236.416,216.91 		"/>
		
			<line fill="none" stroke="#697733" stroke-width="7.018" stroke-linecap="round" stroke-linejoin="round" stroke-miterlimit="10" x1="80.977" y1="231.317" x2="285.279" y2="231.317"/>
		<polygon opacity="0.4" fill="#9FC14B" points="102.102,57.448 272.088,57.448 265.072,81.622 112.238,81.622 		"/>
	</g>
</g>
<g id="Layer_4">
</g>
<g id="Layer_5">
</g>
</svg>
