<?xml version="1.0" encoding="utf-8"?>
<!-- Generator: Adobe Illustrator 16.0.4, SVG Export Plug-In . SVG Version: 6.00 Build 0)  -->
<!DOCTYPE svg PUBLIC "-//W3C//DTD SVG 1.1//EN" "http://www.w3.org/Graphics/SVG/1.1/DTD/svg11.dtd">
<svg version="1.1" xmlns="http://www.w3.org/2000/svg" xmlns:xlink="http://www.w3.org/1999/xlink" x="0px" y="0px"
	 width="357.121px" height="187.2px" viewBox="0 0 357.121 187.2" enable-background="new 0 0 357.121 187.2" xml:space="preserve">
<g id="Layer_2" display="none">
</g>
<g id="Layer_3">
</g>
<g id="Layer_1">
	
		<path fill="#FFFFFF" stroke="#697733" stroke-width="3.0258" stroke-linecap="round" stroke-linejoin="round" stroke-miterlimit="10" d="
		M202.128,152.126v-38.919c0-1.791,1.454-3.243,3.243-3.243l0,0c1.793,0,3.244,1.452,3.244,3.243v38.919"/>
	
		<path fill="#FEE37E" stroke="#697733" stroke-width="2.4296" stroke-linecap="round" stroke-linejoin="round" stroke-miterlimit="10" d="
		M231.05,102.06c0,14.141-11.466,25.605-25.612,25.605l0,0c-14.141,0-25.607-11.465-25.607-25.605v-37.33
		c0-14.143,11.467-25.606,25.607-25.606l0,0c14.146,0,25.612,11.464,25.612,25.606V102.06z"/>
	
		<polyline fill="none" stroke="#697733" stroke-width="2.4296" stroke-linecap="round" stroke-linejoin="round" stroke-miterlimit="10" points="
		205.438,127.665 205.438,95.547 190.032,80.139 	"/>
	
		<polyline fill="none" stroke="#697733" stroke-width="2.4296" stroke-linecap="round" stroke-linejoin="round" stroke-miterlimit="10" points="
		198.498,60.822 205.438,69.504 205.438,95.547 219.871,81.116 	"/>
	
		<line fill="#FFFFFF" stroke="#697733" stroke-width="2.4296" stroke-linecap="round" stroke-linejoin="round" stroke-miterlimit="10" x1="213.688" y1="61.692" x2="206.089" y2="69.288"/>
	
		<path fill="#FFFFFF" stroke="#697733" stroke-width="3.0258" stroke-linecap="round" stroke-linejoin="round" stroke-miterlimit="10" d="
		M114.559,151.046V91.044c0-1.792,1.451-3.244,3.244-3.244l0,0c1.791,0,3.244,1.452,3.244,3.244v60.002"/>
	
		<path fill="#FEE37E" stroke="#697733" stroke-width="3.487" stroke-linecap="round" stroke-linejoin="round" stroke-miterlimit="10" d="
		M143.208,80.167c0,14.141-11.464,25.607-25.607,25.607l0,0c-14.144,0-25.608-11.467-25.608-25.607V42.836
		c0-14.141,11.465-25.606,25.608-25.606l0,0c14.144,0,25.607,11.466,25.607,25.606V80.167z"/>
	
		<polyline fill="none" stroke="#697733" stroke-width="2.4296" stroke-linecap="round" stroke-linejoin="round" stroke-miterlimit="10" points="
		117.601,105.774 117.601,73.655 102.195,58.246 	"/>
	
		<polyline fill="none" stroke="#697733" stroke-width="2.4296" stroke-linecap="round" stroke-linejoin="round" stroke-miterlimit="10" points="
		110.656,38.93 117.601,47.61 117.601,73.655 132.035,59.223 	"/>
	
		<line fill="#FFFFFF" stroke="#697733" stroke-width="2.4296" stroke-linecap="round" stroke-linejoin="round" stroke-miterlimit="10" x1="125.849" y1="39.799" x2="118.25" y2="47.396"/>
	
		<line fill="none" stroke="#697733" stroke-width="3.0258" stroke-linecap="round" stroke-linejoin="round" stroke-miterlimit="10" x1="102.489" y1="152.788" x2="258.709" y2="152.788"/>
	
		<line fill="none" stroke="#697733" stroke-width="3.0258" stroke-linecap="round" stroke-linejoin="round" stroke-miterlimit="10" x1="310.142" y1="152.788" x2="299.047" y2="152.788"/>
	
		<line fill="none" stroke="#697733" stroke-width="3.0258" stroke-linecap="round" stroke-linejoin="round" stroke-miterlimit="10" x1="289.974" y1="152.788" x2="268.791" y2="152.788"/>
	
		<line fill="none" stroke="#697733" stroke-width="3.0258" stroke-linecap="round" stroke-linejoin="round" stroke-miterlimit="10" x1="92.287" y1="152.788" x2="81.193" y2="152.788"/>
	<path fill="#FEE37E" stroke="#697733" stroke-width="3.2433" stroke-miterlimit="10" d="M161.858,179.83
		c0,1.791-1.452,3.242-3.245,3.242l0,0c-1.789,0-3.242-1.451-3.242-3.242v-60.002c0-1.79,1.453-3.243,3.242-3.243l0,0
		c1.793,0,3.245,1.453,3.245,3.243V179.83z"/>
	
		<path fill="#FFFFFF" stroke="#697733" stroke-width="3.487" stroke-linecap="round" stroke-linejoin="round" stroke-miterlimit="10" d="
		M184.291,111.521c0,14.143-11.466,25.607-25.607,25.607l0,0c-14.145,0-25.609-11.465-25.609-25.607V74.188
		c0-14.141,11.465-25.605,25.609-25.605l0,0c14.142,0,25.607,11.465,25.607,25.605V111.521z"/>
	
		<polyline fill="none" stroke="#697733" stroke-width="2.4296" stroke-linecap="round" stroke-linejoin="round" stroke-miterlimit="10" points="
		158.684,137.128 158.684,105.007 143.275,89.6 	"/>
	
		<polyline fill="none" stroke="#697733" stroke-width="2.4296" stroke-linecap="round" stroke-linejoin="round" stroke-miterlimit="10" points="
		151.738,70.283 158.684,78.964 158.684,105.007 173.115,90.575 	"/>
	
		<line fill="#FFFFFF" stroke="#697733" stroke-width="2.4296" stroke-linecap="round" stroke-linejoin="round" stroke-miterlimit="10" x1="166.929" y1="71.152" x2="159.333" y2="78.751"/>
	<path fill="#FEE37E" stroke="#697733" stroke-width="3.2433" stroke-miterlimit="10" d="M241.319,151.45V91.448
		c0-1.791,1.454-3.243,3.243-3.243l0,0c1.792,0,3.243,1.452,3.243,3.243v60.002"/>
	
		<path fill="#FFFFFF" stroke="#697733" stroke-width="3.487" stroke-linecap="round" stroke-linejoin="round" stroke-miterlimit="10" d="
		M270.238,83.141c0,14.143-11.464,25.606-25.605,25.606l0,0c-14.145,0-25.612-11.464-25.612-25.606V45.812
		c0-14.142,11.468-25.608,25.612-25.608l0,0c14.142,0,25.605,11.467,25.605,25.608V83.141z"/>
	
		<polyline fill="none" stroke="#697733" stroke-width="2.4296" stroke-linecap="round" stroke-linejoin="round" stroke-miterlimit="10" points="
		244.633,108.747 244.633,76.629 229.223,61.22 	"/>
	
		<polyline fill="none" stroke="#697733" stroke-width="2.4296" stroke-linecap="round" stroke-linejoin="round" stroke-miterlimit="10" points="
		237.688,41.904 244.633,50.585 244.633,76.629 259.062,62.197 	"/>
	
		<line fill="#FFFFFF" stroke="#697733" stroke-width="2.4296" stroke-linecap="round" stroke-linejoin="round" stroke-miterlimit="10" x1="252.878" y1="42.773" x2="245.281" y2="50.369"/>
</g>
<g id="Layer_4">
</g>
<g id="Layer_5">
</g>
</svg>
