<?xml version="1.0" encoding="utf-8"?>
<!-- Generator: Adobe Illustrator 16.0.4, SVG Export Plug-In . SVG Version: 6.00 Build 0)  -->
<!DOCTYPE svg PUBLIC "-//W3C//DTD SVG 1.1//EN" "http://www.w3.org/Graphics/SVG/1.1/DTD/svg11.dtd">
<svg version="1.1" xmlns="http://www.w3.org/2000/svg" xmlns:xlink="http://www.w3.org/1999/xlink" x="0px" y="0px"
	 width="357.12px" height="267.12px" viewBox="0 0 357.12 267.12" enable-background="new 0 0 357.12 267.12" xml:space="preserve">
<g id="Layer_2" display="none">
</g>
<g id="Layer_3">
</g>
<g id="Layer_1">
	<g>
		
			<line fill="none" stroke="#FFFFFF" stroke-width="4.1319" stroke-linecap="round" stroke-linejoin="round" stroke-miterlimit="10" x1="1" y1="129.77" x2="354.301" y2="129.77"/>
		<g>
			<circle fill="#697733" stroke="#FFFFFF" stroke-width="2.903" stroke-miterlimit="10" cx="177.65" cy="129.771" r="46.154"/>
			<g>
				
					<polygon fill="none" stroke="#FFFFFF" stroke-width="1.1612" stroke-linecap="round" stroke-linejoin="round" stroke-miterlimit="10" points="
					162.064,104.839 162.064,153.028 194.287,153.028 194.287,114.128 198.932,107.742 194.287,105.032 				"/>
				
					<path fill="none" stroke="#FFFFFF" stroke-width="1.1612" stroke-linecap="round" stroke-linejoin="round" stroke-miterlimit="10" d="
					M189.836,98.646c0,0-19.74,0-23.418,0c-3.676,0-4.062,4.064-4.062,4.064h31.932c0,0-0.387-4.064-4.064-4.064"/>
				
					<polyline fill="none" stroke="#FFFFFF" stroke-width="1.1612" stroke-linecap="round" stroke-linejoin="round" stroke-miterlimit="10" points="
					176.869,105.71 176.869,149.544 179.191,149.544 179.191,105.129 				"/>
				
					<line fill="none" stroke="#FFFFFF" stroke-width="1.1612" stroke-linecap="round" stroke-linejoin="round" stroke-miterlimit="10" x1="164.967" y1="149.544" x2="191.674" y2="149.544"/>
				
					<polyline fill="none" stroke="#FFFFFF" stroke-width="1.1612" stroke-linecap="round" stroke-linejoin="round" stroke-miterlimit="10" points="
					162.645,153.028 158.869,157.093 198.061,157.093 194.432,153.464 				"/>
				
					<polyline fill="none" stroke="#FFFFFF" stroke-width="1.1612" stroke-linecap="round" stroke-linejoin="round" stroke-miterlimit="10" points="
					162.064,110.064 151.904,110.064 151.904,126.32 161.918,136.336 				"/>
			</g>
		</g>
	</g>
</g>
<g id="Layer_4">
</g>
<g id="Layer_5">
</g>
</svg>
