<?xml version="1.0" encoding="utf-8"?>
<!-- Generator: Adobe Illustrator 16.0.4, SVG Export Plug-In . SVG Version: 6.00 Build 0)  -->
<!DOCTYPE svg PUBLIC "-//W3C//DTD SVG 1.1//EN" "http://www.w3.org/Graphics/SVG/1.1/DTD/svg11.dtd">
<svg version="1.1" xmlns="http://www.w3.org/2000/svg" xmlns:xlink="http://www.w3.org/1999/xlink" x="0px" y="0px"
	 width="357.121px" height="267.121px" viewBox="0 0 357.121 267.121" enable-background="new 0 0 357.121 267.121"
	 xml:space="preserve">
<g id="Layer_2" display="none">
</g>
<g id="Layer_3">
</g>
<g id="Layer_1">
</g>
<g id="Layer_4">
	
		<path fill="#FEE37E" stroke="#697733" stroke-width="3" stroke-linecap="round" stroke-linejoin="round" stroke-miterlimit="10" d="
		M286.841,32.063c-1.358-1.352-2.696-1.352-5.378-1.352c-2.689,1.352-59.119,10.753-85.981,37.62
		c-33.585,33.582-21.492,56.415-10.75,67.165c0.522,0.521,1.065,1.02,1.618,1.508c-2.602,4.917-4.991,9.8-7.17,14.648
		c-3.766-12.228-9.954-24.302-18.172-36.01c4.154-5.924,6.113-11.843,4.934-17.763c-1.357-9.398-8.073-18.807-20.153-28.215
		c-21.499-16.11-63.152-18.803-64.489-18.803c-2.67,0-4.021,1.348-5.379,2.692c-1.337,2.682-1.337,4.023-1.337,6.713
		c1.337,1.348,12.093,40.298,33.586,57.763c10.756,8.061,20.147,12.087,29.552,12.087c4.975,0,9.943-1.536,14.283-4.599
		c12.061,16.306,17.472,33.485,17.904,50.701c-3.678,12.174-5.861,24.119-6.472,35.839h-18.993c-4.033,0-6.723,2.693-6.723,6.72
		c0,4.03,2.689,6.716,6.723,6.716h52.375c4.041,0,6.716-2.686,6.716-6.716c0-4.026-2.675-6.72-6.716-6.72h-19.941
		c0.589-10.835,2.584-22.089,6.117-33.582h0.393c0-0.375-0.023-0.75-0.029-1.124c3.465-10.977,8.318-22.155,14.641-33.373
		c3.934,1.465,8.1,2.259,12.266,2.259c13.432,0,26.87-8.061,40.302-22.833c26.87-26.87,37.613-83.289,37.613-85.978
		C289.51,36.087,288.179,33.405,286.841,32.063z"/>
</g>
<g id="Layer_5">
</g>
</svg>
