<?xml version="1.0" encoding="utf-8"?>
<!-- Generator: Adobe Illustrator 16.0.4, SVG Export Plug-In . SVG Version: 6.00 Build 0)  -->
<!DOCTYPE svg PUBLIC "-//W3C//DTD SVG 1.1//EN" "http://www.w3.org/Graphics/SVG/1.1/DTD/svg11.dtd">
<svg version="1.1" xmlns="http://www.w3.org/2000/svg" xmlns:xlink="http://www.w3.org/1999/xlink" x="0px" y="0px"
	 width="357.12px" height="266.986px" viewBox="0 0 357.12 266.986" enable-background="new 0 0 357.12 266.986"
	 xml:space="preserve">
<g id="Layer_2" display="none">
</g>
<g id="Layer_3">
</g>
<g id="Layer_1">
	<g>
		
			<line fill="none" stroke="#FFFFFF" stroke-width="4.1319" stroke-linecap="round" stroke-linejoin="round" stroke-miterlimit="10" x1="1.819" y1="125.953" x2="355.12" y2="125.953"/>
		<g>
			<circle fill="#697733" stroke="#FFFFFF" stroke-width="2.903" stroke-miterlimit="10" cx="178.469" cy="125.953" r="46.155"/>
			
				<path fill="#697733" stroke="#FFFFFF" stroke-width="1.7418" stroke-linecap="round" stroke-linejoin="round" stroke-miterlimit="10" d="
				M192.425,137.547c-8.225,8.223-20.643,13.186-29.418,6.529c-6.645-5.037-4.846-20.207,3.379-28.43
				c5.211-5.211,14.102-12.148,19.664-10.023c1.434,0.547,1.395,2.639,2.697,3.855c1.227,1.145,6.697-1.004,7.893,0.193
				C202.534,115.566,200.647,129.322,192.425,137.547z"/>
			
				<path fill="none" stroke="#FFFFFF" stroke-width="1.1612" stroke-linecap="round" stroke-linejoin="round" stroke-miterlimit="10" d="
				M187.786,114.195c-0.09,3.924-3.188,10.059-5.01,11.881c-3.533,3.535-12.48,7.193-15.307,16.006"/>
			
				<path fill="none" stroke="#FFFFFF" stroke-width="1.1612" stroke-linecap="round" stroke-linejoin="round" stroke-miterlimit="10" d="
				M185.087,114.84c-1.145,3.654-2.646,7.258-4.467,9.078c-3.098,3.096-10.346,6.287-13.996,12.953"/>
		</g>
	</g>
</g>
<g id="Layer_4">
</g>
<g id="Layer_5">
</g>
</svg>
